<svg width="390" height="757" viewBox="0 0 390 757" fill="none" xmlns="http://www.w3.org/2000/svg">
<rect width="64.8587" height="755.978" transform="matrix(1 2.13156e-06 -9.51215e-08 1 -0.000244141 0.0065918)" fill="#FBD05F"/>
<rect width="65.2826" height="755.978" transform="matrix(1 1.88083e-06 -9.53029e-08 1 64.8582 0.00610352)" fill="#70DFEE"/>
<rect width="64.8587" height="755.978" transform="matrix(1 1.88083e-06 -9.53029e-08 1 130.141 0.0285645)" fill="#81ECA5"/>
<rect width="64.8587" height="755.978" transform="matrix(1 1.88083e-06 -9.53029e-08 1 195 0.0280762)" fill="#F284F5"/>
<rect width="65.2826" height="755.978" transform="matrix(1 1.88083e-06 -9.53029e-08 1 259.858 0.0275879)" fill="#E8627A"/>
<rect width="64.8587" height="755.978" transform="matrix(1 1.88083e-06 -9.53029e-08 1 325.141 0.0269775)" fill="#796AFA"/>
</svg>
