<svg width="53" height="40" viewBox="0 0 53 40" fill="none" xmlns="http://www.w3.org/2000/svg">
<path d="M34.2826 0.848276C37.7504 1.484 41.0719 2.54025 44.1832 3.95193C49.9087 12.4262 52.7459 21.9485 51.7481 32.9003C47.5609 35.938 43.5012 37.8332 39.4943 39.1143C38.7542 38.0573 38.0692 36.9572 37.4486 35.8152C38.6839 35.3151 39.8698 34.7334 41.0172 34.0627L41.0179 34.0622C41.6123 33.7139 41.6381 32.8827 41.1039 32.4849L41.1029 32.4841C40.8371 32.2868 40.5725 32.0784 40.318 31.869L40.3145 31.8661C40.037 31.6405 39.6517 31.588 39.3206 31.7437C31.0395 35.5666 21.9775 35.5676 13.5921 31.7407L13.5921 31.7406L13.5866 31.7382C13.2621 31.5931 12.8806 31.6425 12.603 31.8706L12.6019 31.8715C12.351 32.0785 12.0855 32.2853 11.8184 32.4855C11.2749 32.8913 11.323 33.722 11.9091 34.0634L11.9136 34.0659C13.0569 34.7216 14.2426 35.3123 15.4806 35.8182C14.8703 36.96 14.1853 38.0591 13.434 39.1153C9.44451 37.8343 5.38468 35.9392 1.19728 32.9017C0.361461 23.4107 2.19469 13.8138 8.75319 3.95306C11.8683 2.53865 15.1915 1.48182 18.6592 0.847687C19.0537 1.57503 19.4679 2.41691 19.7593 3.11601L19.994 3.6791L20.5971 3.58698C24.4705 2.99532 28.4059 2.99496 32.3652 3.58734L32.9619 3.67661L33.1983 3.12156C33.4942 2.4268 33.8967 1.57305 34.2826 0.848276ZM51.7225 33.1731C51.7225 33.1726 51.7226 33.1721 51.7226 33.1717C51.7226 33.1719 51.7226 33.1722 51.7225 33.1725L51.7225 33.1731ZM12.753 33.7346C12.7534 33.7343 12.7538 33.734 12.7541 33.7337L12.7512 33.7359L12.753 33.7346ZM15.793 35.2169L15.7913 35.2203C15.7919 35.2191 15.7924 35.218 15.793 35.2169ZM1.22271 33.1817L1.2219 33.173C1.22218 33.1759 1.22247 33.1788 1.22271 33.1817ZM23.2686 22.0004C23.3122 18.7518 20.9276 15.9252 17.7705 15.9252C14.6279 15.9252 12.273 18.738 12.273 21.9949C12.273 25.2558 14.6735 28.0639 17.7705 28.0639C20.9118 28.0639 23.2659 25.2544 23.2686 22.0004ZM40.7119 22.0004C40.7555 18.7519 38.371 15.9252 35.2144 15.9252C32.0713 15.9252 29.7163 18.738 29.7163 21.9949C29.7163 25.2559 32.1168 28.0639 35.2144 28.0639C38.3782 28.0639 40.7093 25.252 40.7119 22.0004Z" fill="#796AFA" stroke="black" stroke-width="1.56"/>
</svg>
