<svg width="1000" height="1000" viewBox="0 0 1000 1000" fill="none" xmlns="http://www.w3.org/2000/svg">
<g clip-path="url(#clip0_83_2)">
<rect width="1000" height="1000" rx="500" fill="#FBD05F"/>
<g style="mix-blend-mode:luminosity" opacity="0.24">
<rect width="82.7339" height="999.995" transform="matrix(-1.10208e-06 1 -1 -1.73372e-09 1000 0)" fill="#31322C"/>
<rect width="118.705" height="999.995" transform="matrix(-1.41356e-06 1 -1 -1.35168e-09 1000 82.7344)" fill="#5A5A5A"/>
<rect width="115.108" height="999.995" transform="matrix(-1.41356e-06 1 -1 -1.35168e-09 1000 201.438)" fill="#696968"/>
<rect width="115.108" height="999.995" transform="matrix(-1.41356e-06 1 -1 -1.35168e-09 1000 316.548)" fill="#8B8B8B"/>
<rect width="118.705" height="999.995" transform="matrix(-1.41356e-06 1 -1 -1.35168e-09 1000 431.655)" fill="#A4A4A4"/>
<rect width="115.108" height="999.995" transform="matrix(-1.41356e-06 1 -1 -1.35168e-09 1000 550.36)" fill="#CFCFCF"/>
<rect width="118.705" height="999.995" transform="matrix(-1.41356e-06 1 -1 -1.35168e-09 999.995 665.469)" fill="#F2F2F2"/>
<rect width="115.108" height="999.995" transform="matrix(-1.41356e-06 1 -1 -1.35168e-09 999.995 784.173)" fill="#F7F7F7"/>
<rect width="100.72" height="999.995" transform="matrix(-1.41356e-06 1 -1 -1.35168e-09 999.995 899.28)" fill="white"/>
</g>
<g clip-path="url(#clip1_83_2)">
<rect x="100" y="100" width="800" height="800" rx="400" fill="#70DFEE"/>
<g style="mix-blend-mode:luminosity" opacity="0.24">
<rect width="66.1871" height="799.996" transform="matrix(-1.10208e-06 1 -1 -1.73372e-09 900 100)" fill="#31322C"/>
<rect width="94.9642" height="799.996" transform="matrix(-1.41356e-06 1 -1 -1.35168e-09 900 166.188)" fill="#5A5A5A"/>
<rect width="92.0864" height="799.996" transform="matrix(-1.41356e-06 1 -1 -1.35168e-09 900 261.151)" fill="#696968"/>
<rect width="92.0864" height="799.996" transform="matrix(-1.41356e-06 1 -1 -1.35168e-09 900 353.239)" fill="#8B8B8B"/>
<rect width="94.9642" height="799.996" transform="matrix(-1.41356e-06 1 -1 -1.35168e-09 900 445.324)" fill="#A4A4A4"/>
<rect width="92.0864" height="799.996" transform="matrix(-1.41356e-06 1 -1 -1.35168e-09 900 540.288)" fill="#CFCFCF"/>
<rect width="94.9642" height="799.996" transform="matrix(-1.41356e-06 1 -1 -1.35168e-09 899.996 632.375)" fill="#F2F2F2"/>
<rect width="92.0864" height="799.996" transform="matrix(-1.41356e-06 1 -1 -1.35168e-09 899.996 727.338)" fill="#F7F7F7"/>
<rect width="80.5756" height="799.996" transform="matrix(-1.41356e-06 1 -1 -1.35168e-09 899.996 819.424)" fill="white"/>
</g>
</g>
<g clip-path="url(#clip2_83_2)">
<rect x="125" y="125" width="750" height="750" rx="375" fill="#81ECA5"/>
<g style="mix-blend-mode:luminosity" opacity="0.24">
<rect width="62.0504" height="749.996" transform="matrix(-1.10208e-06 1 -1 -1.73372e-09 875 125)" fill="#31322C"/>
<rect width="89.0289" height="749.996" transform="matrix(-1.41356e-06 1 -1 -1.35168e-09 875 187.051)" fill="#5A5A5A"/>
<rect width="86.331" height="749.996" transform="matrix(-1.41356e-06 1 -1 -1.35168e-09 875 276.079)" fill="#696968"/>
<rect width="86.331" height="749.996" transform="matrix(-1.41356e-06 1 -1 -1.35168e-09 875 362.411)" fill="#8B8B8B"/>
<rect width="89.0289" height="749.996" transform="matrix(-1.41356e-06 1 -1 -1.35168e-09 875 448.742)" fill="#A4A4A4"/>
<rect width="86.331" height="749.996" transform="matrix(-1.41356e-06 1 -1 -1.35168e-09 875 537.77)" fill="#CFCFCF"/>
<rect width="89.0289" height="749.996" transform="matrix(-1.41356e-06 1 -1 -1.35168e-09 874.996 624.102)" fill="#F2F2F2"/>
<rect width="86.331" height="749.996" transform="matrix(-1.41356e-06 1 -1 -1.35168e-09 874.996 713.13)" fill="#F7F7F7"/>
<rect width="75.5397" height="749.996" transform="matrix(-1.41356e-06 1 -1 -1.35168e-09 874.996 799.46)" fill="white"/>
</g>
</g>
<g clip-path="url(#clip3_83_2)">
<rect x="150" y="150" width="700" height="700" rx="350" fill="#F284F5"/>
<g style="mix-blend-mode:luminosity" opacity="0.24">
<rect width="57.9137" height="699.997" transform="matrix(-1.10208e-06 1 -1 -1.73372e-09 850 150)" fill="#31322C"/>
<rect width="83.0936" height="699.997" transform="matrix(-1.41356e-06 1 -1 -1.35168e-09 850 207.914)" fill="#5A5A5A"/>
<rect width="80.5756" height="699.997" transform="matrix(-1.41356e-06 1 -1 -1.35168e-09 850 291.007)" fill="#696968"/>
<rect width="80.5756" height="699.997" transform="matrix(-1.41356e-06 1 -1 -1.35168e-09 850 371.584)" fill="#8B8B8B"/>
<rect width="83.0936" height="699.997" transform="matrix(-1.41356e-06 1 -1 -1.35168e-09 850 452.159)" fill="#A4A4A4"/>
<rect width="80.5756" height="699.997" transform="matrix(-1.41356e-06 1 -1 -1.35168e-09 850 535.252)" fill="#CFCFCF"/>
<rect width="83.0936" height="699.997" transform="matrix(-1.41356e-06 1 -1 -1.35168e-09 849.997 615.828)" fill="#F2F2F2"/>
<rect width="80.5756" height="699.997" transform="matrix(-1.41356e-06 1 -1 -1.35168e-09 849.997 698.921)" fill="#F7F7F7"/>
<rect width="70.5037" height="699.997" transform="matrix(-1.41356e-06 1 -1 -1.35168e-09 849.997 779.496)" fill="white"/>
</g>
</g>
<rect x="175" y="175" width="650" height="650" rx="325" fill="#E8627A"/>
<g style="mix-blend-mode:luminosity" opacity="0.24">
<rect width="52.4519" height="633.98" transform="matrix(-1.10208e-06 1 -1 -1.73372e-09 816.992 183.008)" fill="#31322C"/>
<rect width="75.2571" height="633.98" transform="matrix(-1.41356e-06 1 -1 -1.35168e-09 816.992 235.46)" fill="#5A5A5A"/>
<rect width="72.9766" height="633.98" transform="matrix(-1.41356e-06 1 -1 -1.35168e-09 816.992 310.717)" fill="#696968"/>
<rect width="72.9766" height="633.98" transform="matrix(-1.41356e-06 1 -1 -1.35168e-09 816.992 383.695)" fill="#8B8B8B"/>
<rect width="75.2571" height="633.98" transform="matrix(-1.41356e-06 1 -1 -1.35168e-09 816.992 456.671)" fill="#A4A4A4"/>
<rect width="72.9766" height="633.98" transform="matrix(-1.41356e-06 1 -1 -1.35168e-09 816.992 531.927)" fill="#CFCFCF"/>
<rect width="75.2571" height="633.98" transform="matrix(-1.41356e-06 1 -1 -1.35168e-09 816.989 604.905)" fill="#F2F2F2"/>
<rect width="72.9766" height="633.98" transform="matrix(-1.41356e-06 1 -1 -1.35168e-09 816.989 680.161)" fill="#F7F7F7"/>
<rect width="63.8545" height="633.98" transform="matrix(-1.41356e-06 1 -1 -1.35168e-09 816.989 753.137)" fill="white"/>
</g>
<g clip-path="url(#clip4_83_2)">
<rect x="200" y="200" width="600" height="600" rx="300" fill="#796AFA"/>
<g style="mix-blend-mode:luminosity" opacity="0.24">
<rect width="49.6403" height="599.997" transform="matrix(-1.61681e-06 1 -1 -1.18175e-09 800 200)" fill="#31322C"/>
<rect width="71.2231" height="599.997" transform="matrix(-1.41356e-06 1 -1 -1.35169e-09 800 249.641)" fill="#5A5A5A"/>
<rect width="69.0648" height="599.997" transform="matrix(-1.41356e-06 1 -1 -1.35169e-09 800 320.863)" fill="#696968"/>
<rect width="69.0648" height="599.997" transform="matrix(-1.41356e-06 1 -1 -1.35169e-09 800 389.929)" fill="#8B8B8B"/>
<rect width="71.2231" height="599.997" transform="matrix(-1.41356e-06 1 -1 -1.35169e-09 800 458.994)" fill="#A4A4A4"/>
<rect width="69.0648" height="599.997" transform="matrix(-1.41356e-06 1 -1 -1.35169e-09 800 530.216)" fill="#CFCFCF"/>
<rect width="71.2231" height="599.997" transform="matrix(-1.41356e-06 1 -1 -1.35169e-09 799.997 599.282)" fill="#F2F2F2"/>
<rect width="69.0648" height="599.997" transform="matrix(-1.41356e-06 1 -1 -1.35169e-09 799.997 670.504)" fill="#F7F7F7"/>
<rect width="60.4317" height="599.997" transform="matrix(-1.41356e-06 1 -1 -1.35169e-09 799.997 739.569)" fill="white"/>
</g>
<path d="M722.645 344.793H686.234L665.939 374.227C663.551 370.022 660.567 367.018 657.582 363.414C644.45 350.8 626.543 344.793 604.458 344.793H595.504C572.822 344.793 554.915 350.8 541.783 363.414C528.651 376.029 522.085 394.65 522.085 419.277V576.656C522.085 579.058 522.085 580.86 522.085 583.263L471.945 655.945H510.744L533.426 622.307C535.814 625.911 538.201 628.915 541.186 631.918C554.318 644.532 572.225 650.539 594.907 650.539H603.861C625.946 650.539 643.853 644.532 656.985 631.918C670.117 619.304 677.28 600.683 677.28 576.055V419.277C677.28 416.875 677.28 414.472 677.28 412.069L722.645 344.793ZM640.272 585.065C640.272 594.075 636.691 601.884 629.528 608.492C622.962 615.099 614.605 618.103 603.861 618.103H594.907C584.163 618.103 575.806 615.099 568.644 608.492C562.674 601.884 559.093 594.075 559.093 585.065L568.047 572.451L640.272 466.731V585.065ZM559.093 529.202V410.868C559.093 401.858 562.674 394.049 569.24 387.441C576.403 380.834 584.76 377.23 595.504 377.23H604.458C615.202 377.23 623.559 380.834 630.125 387.441C637.287 394.049 640.869 402.458 640.869 411.469L559.093 529.202Z" fill="#141414"/>
<path d="M630.032 608.899C637.248 602.224 640.857 594.336 640.857 585.234V465.698L568.089 572.492L559.068 585.234C559.068 594.336 562.676 602.224 568.69 608.899C575.907 615.573 584.326 618.607 595.151 618.607H604.172C614.997 618.607 623.416 615.573 630.032 608.899Z" fill="#FBD05E"/>
<path d="M559.068 410.643V529.706L640.857 411.247C640.857 402.181 637.275 393.72 630.111 387.072C623.544 380.423 615.186 376.797 604.44 376.797H595.485C584.739 376.797 576.381 380.423 569.217 387.072C562.65 393.72 559.068 401.577 559.068 410.643Z" fill="#70DFEE"/>
<path d="M528.841 344.793H492.172L471.733 374.227C469.329 370.022 466.323 367.018 463.317 363.414C450.092 350.8 432.058 344.793 409.816 344.793H400.799C377.956 344.793 359.922 350.8 346.697 363.414C333.472 376.029 326.859 394.65 326.859 419.277V576.656C326.859 579.058 326.859 580.86 326.859 583.263L276.364 655.945H315.438L338.281 622.307C340.685 625.911 343.09 628.915 346.096 631.918C359.321 644.532 377.355 650.539 400.198 650.539H409.215C431.457 650.539 449.491 644.532 462.716 631.918C475.941 619.304 483.155 600.683 483.155 576.055V419.277C483.155 416.875 483.155 414.472 483.155 412.069L528.841 344.793ZM445.884 585.065C445.884 594.075 442.278 601.884 435.064 608.492C428.452 615.099 420.036 618.103 409.215 618.103H400.198C389.378 618.103 380.962 615.099 373.748 608.492C367.737 601.884 364.13 594.075 364.13 585.065L373.147 572.451L445.884 466.731V585.065ZM364.13 529.202V410.868C364.13 401.858 367.737 394.049 374.349 387.441C381.563 380.834 389.979 377.23 400.799 377.23H409.816C420.637 377.23 429.053 380.834 435.665 387.441C442.879 394.049 446.486 402.458 446.486 411.469L364.13 529.202Z" fill="#141414"/>
<path d="M434.45 608.899C441.667 602.224 445.275 594.336 445.275 585.234V465.698L372.507 572.492L363.486 585.234C363.486 594.336 367.095 602.224 373.109 608.899C380.325 615.573 388.745 618.607 399.57 618.607H408.59C419.415 618.607 427.835 615.573 434.45 608.899Z" fill="#81ECA5"/>
<path d="M363.486 410.643V529.706L447.053 411.247C447.053 402.181 443.393 393.72 436.073 387.072C429.364 380.423 420.824 376.797 409.844 376.797H400.695C389.715 376.797 381.176 380.423 373.856 387.072C367.146 393.72 363.486 401.577 363.486 410.643Z" fill="#F284F5"/>
</g>
<path d="M544.95 88.8413C545.297 88.9243 546.027 89.0044 547.139 89.0818L551.967 89.4176L551.466 96.6162L529.344 95.0775L529.844 87.8789L535.199 88.2514C536.311 88.3287 537.045 88.3503 537.4 88.3162L539.073 64.2623C539.204 62.3895 538.781 60.8605 537.804 59.6753C536.832 58.4315 534.766 57.6997 531.606 57.4799C529.44 57.3293 527.216 58.0273 524.933 59.5739C522.708 61.1246 520.799 63.1972 519.207 65.7916C517.674 68.3902 516.812 71.0648 516.62 73.8155L515.717 86.8081C516.064 86.891 516.793 86.9712 517.905 87.0485L523.26 87.421L522.76 94.6196L500.637 93.0809L501.138 85.8823L505.966 86.2181C507.078 86.2955 507.812 86.3171 508.167 86.283L511.507 38.263L510.98 38.2264L505.976 37.8783L506.477 30.6797L511.393 31.0216L519.569 31.4139L517.89 55.5556C519.964 53.6415 522.21 52.2099 524.629 51.2608C527.11 50.2572 529.608 49.8429 532.125 50.0179C536.982 50.3558 540.674 51.8181 543.199 54.4049C545.783 56.9957 546.926 60.4273 546.629 64.6997L544.95 88.8413Z" fill="white"/>
<path d="M590.446 43.7137C594.356 44.506 597.607 46.4817 600.199 49.6408C602.861 52.7541 604.634 56.705 605.519 61.4935C606.405 66.282 606.282 71.465 605.152 77.0423C604.033 82.5621 602.134 87.3551 599.455 91.4212C596.775 95.4874 593.598 98.465 589.923 100.354C586.317 102.197 582.559 102.723 578.649 101.93C574.682 101.127 571.367 99.1679 568.706 96.0547C566.114 92.8956 564.375 88.9218 563.49 84.1332C562.662 79.3563 562.807 74.208 563.926 68.6882C565.056 63.1109 566.932 58.2833 569.554 54.2055C572.234 50.1393 575.377 47.1847 578.983 45.3414C582.658 43.4523 586.479 42.9098 590.446 43.7137ZM580.117 94.6857C582.59 95.1867 585.018 94.7212 587.404 93.289C589.801 91.7994 591.883 89.4978 593.652 86.3843C595.477 83.2825 596.81 79.6616 597.648 75.5218C598.499 71.3244 598.681 67.4705 598.196 63.9601C597.779 60.4038 596.751 57.5018 595.111 55.2541C593.483 52.9489 591.433 51.5457 588.961 51.0447C586.431 50.5321 583.967 51.0205 581.57 52.5102C579.185 53.9423 577.08 56.2093 575.254 59.3112C573.497 62.3672 572.194 65.9938 571.343 70.1912C570.504 74.3311 570.293 78.1791 570.71 81.7354C571.184 85.3033 572.235 88.2399 573.863 90.5451C575.503 92.7928 577.587 94.173 580.117 94.6857Z" fill="white"/>
<path d="M641.402 56.9523C645.197 58.1838 648.202 60.5162 650.419 63.9494C652.709 67.3449 654.022 71.4717 654.357 76.3298C654.693 81.1879 653.982 86.3234 652.225 91.7361C650.487 97.0931 648.055 101.639 644.931 105.375C641.807 109.11 638.312 111.707 634.446 113.166C630.654 114.588 626.86 114.683 623.066 113.451C619.216 112.202 616.145 109.879 613.855 106.484C611.638 103.051 610.362 98.9049 610.027 94.0468C609.748 89.2068 610.477 84.1083 612.216 78.7513C613.972 73.3386 616.385 68.7555 619.453 65.0021C622.578 61.2668 626.036 58.6884 629.828 57.2668C633.694 55.8076 637.552 55.7028 641.402 56.9523ZM625.348 106.42C627.747 107.199 630.213 107.013 632.746 105.861C635.296 104.653 637.627 102.603 639.738 99.7108C641.904 96.8365 643.639 93.3905 644.943 89.3728C646.265 85.2993 646.884 81.4911 646.801 77.9482C646.791 74.3676 646.099 71.3676 644.725 68.9481C643.37 66.4728 641.493 64.8458 639.093 64.067C636.638 63.2702 634.135 63.4756 631.584 64.6832C629.052 65.835 626.702 67.8481 624.536 70.7223C622.443 73.5589 620.736 77.014 619.414 81.0875C618.11 85.1052 617.463 88.9044 617.473 92.485C617.539 96.0836 618.249 99.1206 619.604 101.596C620.978 104.015 622.892 105.624 625.348 106.42Z" fill="white"/>
<path d="M690.242 131.439C691.252 131.911 691.928 132.68 692.271 133.747C692.692 134.786 692.666 135.81 692.194 136.82C691.623 138.042 690.632 138.777 689.221 139.024C687.108 139.526 685.148 139.354 683.341 138.509C681.534 137.664 680.244 136.478 679.469 134.949C678.718 133.368 678.004 131.156 677.326 128.313L673.416 111.33C673.416 111.33 673.389 111.317 673.336 111.293C673.361 111.239 673.373 111.213 673.373 111.213L671.141 110.169L665.811 121.568C666.105 121.771 666.757 122.108 667.766 122.58L671.991 124.556L668.897 131.172L649.447 122.077L652.541 115.46L656.925 117.51C657.935 117.983 658.612 118.267 658.955 118.363L679.345 74.7585L678.867 74.5349L674.323 72.4101L677.38 65.8735L681.844 67.9609L689.332 71.2682L674.273 103.473L676.584 104.554C676.637 104.579 676.742 104.563 676.898 104.506L688.593 98.6093L684.767 96.82L687.823 90.2834L706.636 99.0806L703.58 105.617L700.55 104.201C699.487 103.704 698.534 103.387 697.691 103.252C696.872 103.064 696.087 103.15 695.336 103.511L680.997 110.698L684.765 126.74C685.277 129.246 685.802 130.755 686.34 131.265C686.499 131.34 686.879 131.291 687.478 131.117C688.417 130.909 689.339 131.016 690.242 131.439Z" fill="white"/>
<path d="M731.261 165.328L724.426 162.472L724.203 162.331C723.161 161.673 722.422 160.756 721.986 159.579C721.581 158.352 721.49 157.011 721.714 155.557C719.623 155.902 717.506 155.85 715.362 155.399C713.269 154.979 711.304 154.19 709.468 153.031C706.293 151.027 703.957 148.408 702.46 145.174C700.963 141.94 700.419 138.406 700.828 134.57C701.236 130.735 702.599 126.982 704.916 123.311C707.202 119.689 709.963 116.853 713.199 114.803C716.486 112.784 719.886 111.738 723.399 111.667C726.913 111.595 730.233 112.545 733.359 114.518C736.335 116.397 738.876 119.076 740.982 122.555L747.933 111.541L747.412 111.212L743.244 108.582L747.096 102.48L751.263 105.11L758.325 109.255L731.507 151.748L729.851 154.865C729.945 154.716 729.747 155.25 729.257 156.467L733.894 158.353L731.261 165.328ZM713.413 146.78C715.398 148.033 717.535 148.549 719.824 148.329C722.195 148.09 724.425 147.139 726.516 145.476L736.379 129.848C734.613 125.612 732.291 122.585 729.413 120.769C726.486 118.922 723.353 118.61 720.015 119.832C716.676 121.055 713.801 123.577 711.39 127.397C709.825 129.878 708.838 132.376 708.428 134.893C708.1 137.391 708.345 139.697 709.163 141.808C710.062 143.902 711.479 145.559 713.413 146.78Z" fill="white"/>
<path d="M793.045 214.569C792.365 215.219 791.528 215.564 790.533 215.604C789.538 215.643 788.675 215.325 787.942 214.648L754.253 183.55L759.207 178.183L762.763 181.466C763.582 182.222 764.141 182.698 764.44 182.894L797.149 147.459L795.592 145.902L792.036 142.619L796.931 137.317L812.708 151.881L807.814 157.183L804.387 154.02L802.71 152.592L770.06 187.963L789.524 205.929C789.998 206.367 790.298 206.604 790.424 206.64C790.669 206.547 790.971 206.307 791.329 205.919L800.631 197.14L805.585 202.671L793.045 214.569Z" fill="white"/>
<path d="M823.214 254.315L817.672 249.311L817.503 249.108C815.7 246.944 815.866 244.21 818 240.906C815.484 240.635 813.11 239.939 810.88 238.82C808.649 237.7 806.745 236.194 805.168 234.3C802.991 231.686 801.466 228.985 800.596 226.198C799.77 223.374 799.635 220.737 800.192 218.288C800.748 215.84 801.973 213.827 803.866 212.25C806.436 210.11 809.497 209.202 813.05 209.525C816.685 209.857 820.839 212.276 825.51 216.784C825.772 217.1 826.174 217.49 826.715 217.956C829.381 220.699 831.42 222.551 832.832 223.512C834.289 224.437 835.277 224.797 835.795 224.595L835.998 224.426L836.133 224.313C837.936 222.811 838.932 221.028 839.12 218.962C839.346 216.941 838.727 215.052 837.262 213.294C836.023 211.807 834.735 210.627 833.398 209.755C832.061 208.884 830.864 208.316 829.804 208.053C828.828 207.798 828.137 207.839 827.731 208.177C826.875 208.89 825.868 209.194 824.711 209.089C823.592 209.028 822.657 208.547 821.906 207.646C821.193 206.789 820.889 205.783 820.994 204.626C821.1 203.469 821.581 202.534 822.437 201.821C824.06 200.469 826.054 199.838 828.42 199.929C830.787 200.02 833.235 200.805 835.766 202.286C838.297 203.766 840.652 205.813 842.829 208.428C844.744 210.727 845.912 213.228 846.332 215.933C846.834 218.644 846.593 221.288 845.609 223.865L844.606 225.96C843.666 227.582 842.475 228.994 841.033 230.196L827.442 241.516L825.278 244.006L824.298 245.166L828.308 249.156L823.214 254.315ZM810.916 229.513C812.342 231.226 814.111 232.387 816.222 232.996C818.37 233.65 820.526 233.763 822.689 233.335C824.89 232.953 826.757 232.123 828.289 230.846L829.236 230.058C826.953 228.6 824.388 226.346 821.542 223.296C820.926 222.74 820.525 222.349 820.337 222.124C818.001 219.87 816.034 218.378 814.434 217.649C812.872 216.965 811.685 216.732 810.873 216.95C810.107 217.13 809.386 217.502 808.71 218.065C807.493 219.079 807.076 220.686 807.458 222.887C807.923 225.096 809.076 227.304 810.916 229.513Z" fill="white"/>
<path d="M854.746 302.149L849.806 296.629L849.665 296.406C848.788 295.017 848.558 293.498 848.973 291.848C849.439 290.167 850.504 288.558 852.17 287.02C849.171 286.555 846.477 285.584 844.089 284.108C841.732 282.682 839.849 280.853 838.44 278.62C835.841 274.502 834.823 270.636 835.385 267.02C836.029 263.423 838.161 260.481 841.783 258.196L862.397 245.186L862.068 244.665L859.814 241.093L865.916 237.241L868.17 240.814L872.687 247.64L845.896 264.549C844.309 265.551 843.301 266.811 842.872 268.33C842.493 269.818 843.149 271.902 844.84 274.581C846.061 276.516 847.945 277.963 850.493 278.922C853.09 279.849 855.85 280.154 858.771 279.837C861.773 279.538 864.49 278.621 866.921 277.087L878.084 270.041L877.802 269.595L875.501 265.948L881.603 262.097L883.904 265.744L888.374 272.496L860.765 289.921L857.976 292.097L856.703 293.213L860.124 296.985L854.746 302.149Z" fill="white"/>
<path d="M882.164 346.539C882.253 346.885 882.525 347.567 882.978 348.585L884.946 353.007L878.274 355.977L869.255 335.717L875.928 332.747L878.111 337.651C878.588 338.723 878.913 339.381 879.086 339.625L901.114 329.82C902.829 329.056 903.981 327.966 904.57 326.548C905.213 325.106 904.89 322.938 903.602 320.043C902.671 317.953 900.988 316.262 898.55 314.971C896.191 313.71 893.504 313.011 890.49 312.876C887.553 312.771 884.772 313.302 882.145 314.471L870.247 319.768C870.337 320.113 870.608 320.795 871.061 321.813L873.244 326.717L866.571 329.688L857.553 309.428L864.226 306.458L866.194 310.88C866.648 311.898 866.973 312.556 867.169 312.854L894.986 300.472L894.736 299.909L893.018 296.05L899.691 293.08L901.408 296.939L904.897 304.344L898.948 306.992C901.635 307.979 903.965 309.318 905.937 311.009C907.988 312.729 909.514 314.715 910.516 316.966C912.496 321.414 912.936 325.36 911.836 328.804C910.76 332.301 908.239 334.933 904.272 336.698L882.164 346.539Z" fill="white"/>
<path d="M899.071 398.153L896.237 396.33C893.878 394.763 891.821 392.771 890.067 390.354C888.312 387.936 887.011 385.292 886.163 382.423C884.965 378.372 884.821 374.469 885.73 370.713C886.639 366.958 888.479 363.661 891.249 360.823C894.037 358.042 897.484 356.044 901.591 354.83C905.754 353.6 909.725 353.375 913.504 354.154C917.355 354.974 920.667 356.656 923.438 359.202C926.265 361.731 928.261 364.964 929.425 368.903C930.273 371.772 930.593 374.614 930.384 377.428C930.193 380.299 929.506 382.735 928.323 384.736C927.213 386.777 925.787 388.055 924.042 388.571C922.917 388.903 921.873 388.784 920.908 388.212C919.961 387.697 919.321 386.877 918.988 385.752C918.672 384.683 918.764 383.646 919.262 382.642C919.834 381.678 920.654 381.038 921.723 380.722C922.027 380.51 922.308 379.907 922.565 378.913C922.838 377.976 922.972 376.774 922.967 375.307C922.979 373.897 922.76 372.432 922.311 370.913C921.164 367.031 918.846 364.26 915.357 362.599C911.942 360.978 908.068 360.808 903.736 362.088C899.347 363.385 896.177 365.699 894.225 369.028C892.346 372.398 892.021 376.164 893.252 380.328C893.85 382.353 894.742 384.231 895.926 385.961C897.166 387.674 898.622 389.079 900.292 390.176L903.015 391.941L899.071 398.153Z" fill="white"/>
<path d="M907.973 450.043C907.97 450.4 908.057 451.129 908.232 452.229L908.993 457.009L901.866 458.144L898.38 436.243L905.507 435.109L906.35 440.41C906.526 441.511 906.67 442.231 906.783 442.569L930.595 438.779C932.449 438.484 933.844 437.727 934.779 436.509C935.771 435.282 936.019 433.104 935.521 429.975C935.179 427.831 933.998 425.821 931.977 423.945C929.965 422.127 927.515 420.735 924.629 419.768C921.752 418.86 918.951 418.623 916.228 419.056L903.366 421.103C903.364 421.46 903.45 422.189 903.625 423.29L904.469 428.591L897.343 429.725L893.857 407.825L900.983 406.691L901.744 411.471C901.919 412.571 902.063 413.291 902.177 413.629L949.714 406.062L949.631 405.541L948.843 400.587L955.969 399.453L956.744 404.32L958.204 412.374L934.305 416.179C936.637 417.768 938.538 419.633 940.008 421.776C941.544 423.967 942.511 426.308 942.908 428.799C943.673 433.608 943.08 437.534 941.129 440.577C939.187 443.678 936.101 445.566 931.872 446.239L907.973 450.043Z" fill="white"/>
<path d="M905.157 538.25C904.163 538.149 903.329 537.732 902.656 536.999C902.041 536.268 901.755 535.404 901.797 534.408L903.743 488.601L910.952 488.907L910.747 493.743L910.741 495.945L958.922 497.991C958.996 497.642 959.056 496.911 959.103 495.797L959.309 490.961L966.518 491.268L964.699 534.085C964.657 535.081 964.269 535.916 963.536 536.59C962.861 537.266 962.025 537.612 961.026 537.628L943.833 538.043L943.355 530.624L956.225 530.378C956.753 530.4 957.136 530.358 957.376 530.251C957.378 530.192 957.383 530.075 957.39 529.899C957.457 529.726 957.497 529.463 957.512 529.112L958.513 505.549L937.852 504.671L937.463 513.815C938.687 514.043 940.91 514.226 944.134 514.362L949.673 514.598L949.359 521.983L917.532 520.631L917.846 513.246L923.385 513.481C926.433 513.611 928.664 513.617 930.078 513.501L930.466 504.357L910.508 503.51L909.384 529.974C909.359 530.56 909.4 530.973 909.508 531.212L910.555 531.433L923.358 532.769L922.253 540.121L905.157 538.25Z" fill="white"/>
<path d="M936.616 602.144L929.523 600.819L930.202 597.186C930.46 595.802 930.375 594.98 929.946 594.721L896.074 572.37L897.059 567.093L934.386 558.488C935.82 558.159 936.639 557.924 936.845 557.784C936.92 557.38 936.951 557.057 936.936 556.816C936.892 556.092 936.892 555.614 936.935 555.383C937.14 554.288 937.692 553.406 938.593 552.739C939.54 552.14 940.562 551.943 941.657 552.147C942.58 552.32 943.462 552.872 944.302 553.805C945.142 554.738 945.347 556.358 944.916 558.665C944.604 560.337 944.034 561.633 943.205 562.552C942.435 563.483 941.534 564.15 940.504 564.555C939.473 564.959 937.989 565.398 936.05 565.871L909.188 572.134L931.973 587.222C932.095 586.886 932.2 586.488 932.286 586.027L933.449 579.798L940.542 581.123L936.616 602.144Z" fill="white"/>
<path d="M890.31 643.892L888.064 641.405C885.407 638.569 883.71 635.243 882.975 631.427C882.296 627.629 882.644 623.61 884.02 619.369C885.252 615.574 887.286 612.441 890.124 609.97C892.999 607.572 896.336 606.034 900.134 605.354C903.987 604.693 907.979 605.032 912.108 606.373L912.861 606.617C916.843 608.033 920.106 610.14 922.652 612.94C925.235 615.814 926.93 619.047 927.738 622.64C928.527 626.288 928.316 629.982 927.102 633.721C925.871 637.515 923.882 640.601 921.137 642.979C918.373 645.413 915.129 646.951 911.405 647.593C907.737 648.253 903.894 647.931 899.877 646.627C898.872 646.301 898.125 645.657 897.635 644.697C897.183 643.81 897.11 642.892 897.418 641.943L906.845 612.898C903.166 612.26 899.904 612.712 897.059 614.256C894.197 615.856 892.222 618.33 891.135 621.678C889.197 627.649 889.978 632.559 893.478 636.409L895.752 638.812L890.31 643.892ZM920.071 631.439C921.103 628.258 921.07 625.225 919.971 622.34C918.854 619.51 916.823 617.216 913.878 615.459L905.837 640.234C909.273 640.671 912.236 640.091 914.728 638.494C917.258 636.971 919.039 634.62 920.071 631.439Z" fill="white"/>
<path d="M863.3 689.482C863.095 689.775 862.753 690.424 862.273 691.43L860.191 695.799L853.598 692.656L863.14 672.638L869.733 675.781L867.423 680.627C866.919 681.686 866.629 682.361 866.556 682.651L888.322 693.026C890.016 693.834 891.594 694.001 893.054 693.528C894.568 693.08 896.006 691.426 897.37 688.566C898.354 686.501 898.546 684.122 897.944 681.431C897.37 678.817 896.155 676.321 894.3 673.942C892.472 671.641 890.261 669.871 887.666 668.634L875.91 663.03C875.705 663.323 875.363 663.972 874.883 664.978L872.573 669.824L865.98 666.681L875.523 646.663L882.116 649.806L880.033 654.175C879.554 655.181 879.265 655.856 879.166 656.199L906.651 669.301L906.916 668.745L908.734 664.932L915.327 668.075L913.509 671.888L910.146 679.351L904.268 676.549C905.263 679.233 905.759 681.874 905.755 684.472C905.779 687.148 905.261 689.598 904.201 691.822C902.106 696.218 899.392 699.116 896.059 700.517C892.701 701.971 889.063 701.764 885.144 699.896L863.3 689.482Z" fill="white"/>
<path d="M838.114 733.987L836.683 730.99C835.693 728.83 835.301 726.495 835.508 723.984C835.733 721.555 836.522 719.276 837.877 717.147C839.294 714.92 841.213 713.325 843.634 712.362C846.054 711.399 848.734 711.122 851.672 711.531C854.628 712.021 857.542 713.18 860.412 715.006L876.598 725.305L880.283 719.513L886.519 723.482L882.929 729.124L882.74 729.421L883.78 730.083L892.095 735.373L888.127 741.61L878.772 735.658L868.663 751.546L862.426 747.578L872.535 731.69L856.35 721.391C853.825 719.785 851.407 718.942 849.094 718.861C846.75 718.83 845.09 719.581 844.113 721.115C843.515 722.056 843.115 723.122 842.912 724.315C842.678 725.557 842.809 726.717 843.304 727.797L844.735 730.794L838.114 733.987Z" fill="white"/>
</g>
<defs>
<clipPath id="clip0_83_2">
<rect width="1000" height="1000" rx="500" fill="white"/>
</clipPath>
<clipPath id="clip1_83_2">
<rect x="100" y="100" width="800" height="800" rx="400" fill="white"/>
</clipPath>
<clipPath id="clip2_83_2">
<rect x="125" y="125" width="750" height="750" rx="375" fill="white"/>
</clipPath>
<clipPath id="clip3_83_2">
<rect x="150" y="150" width="700" height="700" rx="350" fill="white"/>
</clipPath>
<clipPath id="clip4_83_2">
<rect x="200" y="200" width="600" height="600" rx="300" fill="white"/>
</clipPath>
</defs>
</svg>
