<svg width="248" height="64" viewBox="0 0 248 64" fill="none" xmlns="http://www.w3.org/2000/svg">
<path d="M45.5907 56.834C46.2085 56.834 46.2085 56.834 47.444 56.834H52.8803V64H30.0232V56.834H35.0888C36.2008 56.834 36.3243 56.834 37.1892 56.834L37.4363 32C37.4363 30.1467 36.9421 28.5405 35.8301 27.4286C34.7181 26.1931 32.6178 25.6988 29.4054 25.6988C27.1815 25.6988 24.9575 26.4402 22.7336 28.1699C20.6332 29.8996 18.7799 32.1236 17.2973 34.8417C15.9382 37.5598 14.9498 40.4015 14.9498 43.1197V56.7104C16.1853 56.7104 16.3089 56.7104 17.5444 56.7104H22.8571V63.8764H0V56.7104H5.43629C6.54826 56.7104 6.67182 56.7104 7.78378 56.7104V7.16602H1.60618V0H6.79537H14.9498V24.5869C16.9266 22.4865 19.3977 21.0039 21.7452 19.8919C24.2162 18.6564 26.8108 18.0386 29.2819 18.0386C34.2239 18.0386 38.0541 19.2741 40.8958 21.7452C43.7375 24.2162 45.4672 27.4286 45.4672 31.7529V56.834H45.5907Z" fill="#F8F8F8"/>
<path d="M153.081 0H145.544L141.344 6.05405C140.849 5.18919 140.232 4.57143 139.614 3.83012C136.896 1.23552 133.189 0 128.618 0H126.764C122.069 0 118.363 1.23552 115.645 3.83012C112.927 6.42471 111.568 10.2548 111.568 15.3205V47.6911C111.568 48.1853 111.568 48.556 111.568 49.0502L101.189 64H109.22L113.915 57.0811C114.409 57.8224 114.903 58.4402 115.521 59.0579C118.239 61.6525 121.946 62.888 126.641 62.888H128.494C133.066 62.888 136.772 61.6525 139.49 59.0579C142.208 56.4633 143.691 52.6332 143.691 47.5676V15.3205C143.691 14.8263 143.691 14.332 143.691 13.8378L153.081 0ZM136.031 49.4208C136.031 51.2741 135.29 52.8803 133.807 54.2394C132.448 55.5985 130.718 56.2162 128.494 56.2162H126.641C124.417 56.2162 122.687 55.5985 121.205 54.2394C119.969 52.8803 119.228 51.2741 119.228 49.4208L121.081 46.8263L136.031 25.0811V49.4208ZM119.228 37.9305V13.5907C119.228 11.7375 119.969 10.1313 121.328 8.7722C122.811 7.41313 124.541 6.67181 126.764 6.67181H128.618C130.842 6.67181 132.571 7.41313 133.93 8.7722C135.413 10.1313 136.154 11.861 136.154 13.7143L119.228 37.9305Z" fill="#F8F8F8"/>
<path d="M107.49 0H99.9536L95.7529 6.05405C95.2586 5.18919 94.6409 4.57143 94.0231 3.83012C91.305 1.23552 87.5984 0 83.027 0H81.1737C76.4787 0 72.7722 1.23552 70.054 3.83012C67.3359 6.42471 65.9768 10.2548 65.9768 15.3205V47.6911C65.9768 48.1853 65.9768 48.556 65.9768 49.0502L55.5984 64H63.6293L68.3243 57.0811C68.8185 57.8224 69.3127 58.4402 69.9305 59.0579C72.6486 61.6525 76.3552 62.888 81.0502 62.888H82.9034C87.4749 62.888 91.1814 61.6525 93.8996 59.0579C96.6177 56.4633 98.1003 52.6332 98.1003 47.5676V15.3205C98.1003 14.8263 98.1003 14.332 98.1003 13.8378L107.49 0ZM90.4401 49.4208C90.4401 51.2741 89.6988 52.8803 88.2162 54.2394C86.8571 55.5985 85.1274 56.2162 82.9034 56.2162H81.0502C78.8262 56.2162 77.0965 55.5985 75.6139 54.2394C74.3783 52.8803 73.637 51.2741 73.637 49.4208L75.4903 46.8263L90.4401 25.0811V49.4208ZM73.637 37.9305V13.5907C73.637 11.7375 74.3783 10.1313 75.7374 8.7722C77.22 7.41313 78.9498 6.67181 81.1737 6.67181H83.027C85.2509 6.67181 86.9807 7.41313 88.3397 8.7722C89.8224 10.1313 90.5637 11.861 90.5637 13.7143L73.637 37.9305Z" fill="#F8F8F8"/>
<path d="M247.104 62.888L239.691 64H239.32C238.085 64 236.973 63.6293 235.985 62.888C234.996 62.0232 234.131 60.9112 233.514 59.5521C231.907 61.0347 230.054 62.1467 227.954 62.888C225.853 63.6293 223.753 64 221.529 64C217.699 64 214.239 63.0116 211.151 61.0347C208.062 59.0579 205.714 56.3398 203.985 52.7568C202.255 49.1737 201.39 45.2201 201.39 40.7722C201.39 36.4479 202.255 32.4942 203.861 28.9112C205.591 25.3282 207.938 22.61 211.027 20.6332C213.992 18.6564 217.452 17.668 221.158 17.668C224.741 17.668 228.324 18.4093 232.031 20.2625V7.16602V0H247.104V7.16602H239.938V50.7799L240.185 54.4865C240.432 56.2162 240.432 56.2162 240.432 56.2162L245.498 55.2278L247.104 62.888ZM221.529 56.4633C223.876 56.4633 226.1 55.722 227.954 54.3629C229.931 52.8803 231.29 50.7799 232.154 48.3089V29.4054C228.324 26.6873 224.618 25.3282 221.158 25.3282C217.575 25.3282 214.734 26.8108 212.51 29.6525C210.286 32.4942 209.174 36.3243 209.174 40.8957C209.174 43.861 209.668 46.5791 210.656 48.9266C211.768 51.2741 213.251 53.1274 215.104 54.4865C217.081 55.8456 219.181 56.4633 221.529 56.4633Z" fill="#F8F8F8"/>
<path d="M197.189 54.4865C198.301 54.4865 199.29 54.8571 200.031 55.722C200.896 56.4633 201.266 57.4517 201.266 58.5637C201.266 59.9228 200.649 61.0347 199.413 61.8996C197.683 63.2587 195.83 64 193.73 64C191.629 64 190.023 63.5058 188.541 62.3938C187.181 61.2819 185.575 59.5521 183.722 57.2046L172.232 43.7375C172.232 43.7375 172.232 43.7375 172.108 43.7375V43.6139H169.513V56.834C170.749 56.834 170.749 56.834 171.861 56.834H176.68V64H154.44V56.834H159.506C160.618 56.834 160.988 56.834 161.606 56.834V7.16602H156.17V0H161.112H169.39V36.4479H171.737C171.737 36.4479 172.108 35.9537 172.232 35.8301L180.757 25.0811H175.938V17.9151H197.436V25.0811H193.853C193.606 25.0811 191.382 25.0811 190.517 25.3282C189.9 25.4517 189.282 26.3166 188.788 26.9344L178.656 39.7838L189.529 52.3861C191.135 54.4865 192.247 55.5985 192.988 55.8456C193.112 55.8456 193.483 55.5985 193.977 55.2278C195.336 54.8571 196.201 54.4865 197.189 54.4865Z" fill="#F8F8F8"/>
</svg>
