<svg width="196" height="51" viewBox="0 0 196 51" fill="none" xmlns="http://www.w3.org/2000/svg">
<path d="M36.162 45.08C36.652 45.08 36.652 45.08 37.632 45.08H41.944V50.764H23.814V45.08H27.832C28.714 45.08 28.812 45.08 29.498 45.08L29.694 25.382C29.694 23.912 29.302 22.638 28.42 21.756C27.538 20.776 25.872 20.384 23.324 20.384C21.56 20.384 19.796 20.972 18.032 22.344C16.366 23.716 14.896 25.48 13.72 27.636C12.642 29.792 11.858 32.046 11.858 34.202V44.982C12.838 44.982 12.936 44.982 13.916 44.982H18.13V50.666H0V44.982H4.312C5.194 44.982 5.292 44.982 6.174 44.982V5.684H1.274V0H5.39H11.858V19.502C13.426 17.836 15.386 16.66 17.248 15.778C19.208 14.798 21.266 14.308 23.226 14.308C27.146 14.308 30.184 15.288 32.438 17.248C34.692 19.208 36.064 21.756 36.064 25.186V45.08H36.162Z" fill="#F8F8F8"/>
<path d="M121.422 0H115.444L112.112 4.802C111.72 4.116 111.23 3.626 110.74 3.038C108.584 0.98 105.644 0 102.018 0H100.548C96.824 0 93.884 0.98 91.728 3.038C89.572 5.096 88.494 8.134 88.494 12.152V37.828C88.494 38.22 88.494 38.514 88.494 38.906L80.262 50.764H86.632L90.356 45.276C90.748 45.864 91.14 46.354 91.63 46.844C93.786 48.902 96.726 49.882 100.45 49.882H101.92C105.546 49.882 108.486 48.902 110.642 46.844C112.798 44.786 113.974 41.748 113.974 37.73V12.152C113.974 11.76 113.974 11.368 113.974 10.976L121.422 0ZM107.898 39.2C107.898 40.67 107.31 41.944 106.134 43.022C105.056 44.1 103.684 44.59 101.92 44.59H100.45C98.686 44.59 97.314 44.1 96.138 43.022C95.158 41.944 94.57 40.67 94.57 39.2L96.04 37.142L107.898 19.894V39.2ZM94.57 30.086V10.78C94.57 9.31 95.158 8.036 96.236 6.958C97.412 5.88 98.784 5.292 100.548 5.292H102.018C103.782 5.292 105.154 5.88 106.232 6.958C107.408 8.036 107.996 9.408 107.996 10.878L94.57 30.086Z" fill="#F8F8F8"/>
<path d="M85.2599 0H79.2819L75.9499 4.802C75.5579 4.116 75.0679 3.626 74.5779 3.038C72.4219 0.98 69.4819 0 65.8559 0H64.3859C60.6619 0 57.7219 0.98 55.5659 3.038C53.4099 5.096 52.3319 8.134 52.3319 12.152V37.828C52.3319 38.22 52.3319 38.514 52.3319 38.906L44.0999 50.764H50.4699L54.1939 45.276C54.5859 45.864 54.9779 46.354 55.4679 46.844C57.6239 48.902 60.5639 49.882 64.2879 49.882H65.7579C69.3839 49.882 72.3239 48.902 74.4799 46.844C76.6359 44.786 77.8119 41.748 77.8119 37.73V12.152C77.8119 11.76 77.8119 11.368 77.8119 10.976L85.2599 0ZM71.7359 39.2C71.7359 40.67 71.1479 41.944 69.9719 43.022C68.8939 44.1 67.5219 44.59 65.7579 44.59H64.2879C62.5239 44.59 61.1519 44.1 59.9759 43.022C58.9959 41.944 58.4079 40.67 58.4079 39.2L59.8779 37.142L71.7359 19.894V39.2ZM58.4079 30.086V10.78C58.4079 9.31 58.9959 8.036 60.0739 6.958C61.2499 5.88 62.6219 5.292 64.3859 5.292H65.8559C67.6199 5.292 68.9919 5.88 70.0699 6.958C71.2459 8.036 71.8339 9.408 71.8339 10.878L58.4079 30.086Z" fill="#F8F8F8"/>
<path d="M196 49.882L190.12 50.764H189.826C188.846 50.764 187.964 50.47 187.18 49.882C186.396 49.196 185.71 48.314 185.22 47.236C183.946 48.412 182.476 49.294 180.81 49.882C179.144 50.47 177.478 50.764 175.714 50.764C172.676 50.764 169.932 49.98 167.482 48.412C165.032 46.844 163.17 44.688 161.798 41.846C160.426 39.004 159.74 35.868 159.74 32.34C159.74 28.91 160.426 25.774 161.7 22.932C163.072 20.09 164.934 17.934 167.384 16.366C169.736 14.798 172.48 14.014 175.42 14.014C178.262 14.014 181.104 14.602 184.044 16.072V5.684V0H196V5.684H190.316V40.278L190.512 43.218C190.708 44.59 190.708 44.59 190.708 44.59L194.726 43.806L196 49.882ZM175.714 44.786C177.576 44.786 179.34 44.198 180.81 43.12C182.378 41.944 183.456 40.278 184.142 38.318V23.324C181.104 21.168 178.164 20.09 175.42 20.09C172.578 20.09 170.324 21.266 168.56 23.52C166.796 25.774 165.914 28.812 165.914 32.438C165.914 34.79 166.306 36.946 167.09 38.808C167.972 40.67 169.148 42.14 170.618 43.218C172.186 44.296 173.852 44.786 175.714 44.786Z" fill="#F8F8F8"/>
<path d="M156.408 43.218C157.29 43.218 158.074 43.512 158.662 44.198C159.348 44.786 159.642 45.57 159.642 46.452C159.642 47.53 159.152 48.412 158.172 49.098C156.8 50.176 155.33 50.764 153.664 50.764C151.998 50.764 150.724 50.372 149.548 49.49C148.47 48.608 147.196 47.236 145.726 45.374L136.612 34.692C136.612 34.692 136.612 34.692 136.514 34.692V34.594H134.456V45.08C135.436 45.08 135.436 45.08 136.318 45.08H140.14V50.764H122.5V45.08H126.518C127.4 45.08 127.694 45.08 128.184 45.08V5.684H123.872V0H127.792H134.358V28.91H136.22C136.22 28.91 136.514 28.518 136.612 28.42L143.374 19.894H139.552V14.21H156.604V19.894H153.762C153.566 19.894 151.802 19.894 151.116 20.09C150.626 20.188 150.136 20.874 149.744 21.364L141.708 31.556L150.332 41.552C151.606 43.218 152.488 44.1 153.076 44.296C153.174 44.296 153.468 44.1 153.86 43.806C154.938 43.512 155.624 43.218 156.408 43.218Z" fill="#F8F8F8"/>
</svg>
