<svg width="192" height="83" viewBox="0 0 192 83" fill="none" xmlns="http://www.w3.org/2000/svg">
<path d="M35.424 44.1599C35.904 44.1599 35.904 44.1599 36.864 44.1599H41.0879V49.7279H23.328V44.1599H27.264C28.128 44.1599 28.224 44.1599 28.896 44.1599L29.088 24.864C29.088 23.424 28.704 22.176 27.84 21.312C26.976 20.352 25.344 19.968 22.848 19.968C21.12 19.968 19.392 20.544 17.664 21.888C16.032 23.232 14.592 24.96 13.44 27.072C12.384 29.184 11.616 31.392 11.616 33.504V44.0639C12.576 44.0639 12.672 44.0639 13.632 44.0639H17.76V49.6319H0V44.0639H4.22399C5.08799 44.0639 5.18399 44.0639 6.04799 44.0639V5.56799H1.248V0H5.27999H11.616V19.104C13.152 17.472 15.072 16.32 16.896 15.456C18.816 14.496 20.832 14.016 22.752 14.016C26.592 14.016 29.568 14.976 31.776 16.896C33.984 18.816 35.328 21.312 35.328 24.672V44.1599H35.424Z" fill="#F8F8F8"/>
<path d="M118.944 0H113.088L109.824 4.70399C109.44 4.03199 108.96 3.552 108.48 2.976C106.368 0.959999 103.488 0 99.9362 0H98.4962C94.8482 0 91.9682 0.959999 89.8562 2.976C87.7443 4.99199 86.6883 7.96799 86.6883 11.904V37.056C86.6883 37.4399 86.6883 37.728 86.6883 38.1119L78.6243 49.7279H84.8643L88.5122 44.3519C88.8962 44.9279 89.2803 45.4079 89.7603 45.8879C91.8722 47.9039 94.7522 48.8639 98.4002 48.8639H99.8402C103.392 48.8639 106.272 47.9039 108.384 45.8879C110.496 43.8719 111.648 40.8959 111.648 36.9599V11.904C111.648 11.52 111.648 11.136 111.648 10.752L118.944 0ZM105.696 38.3999C105.696 39.8399 105.12 41.0879 103.968 42.1439C102.912 43.1999 101.568 43.6799 99.8402 43.6799H98.4002C96.6722 43.6799 95.3282 43.1999 94.1762 42.1439C93.2162 41.0879 92.6402 39.8399 92.6402 38.3999L94.0802 36.384L105.696 19.488V38.3999ZM92.6402 29.472V10.56C92.6402 9.11999 93.2162 7.87199 94.2722 6.81599C95.4242 5.75999 96.7682 5.18399 98.4962 5.18399H99.9362C101.664 5.18399 103.008 5.75999 104.064 6.81599C105.216 7.87199 105.792 9.21599 105.792 10.656L92.6402 29.472Z" fill="#F8F8F8"/>
<path d="M83.52 0H77.664L74.4 4.70399C74.016 4.03199 73.536 3.552 73.056 2.976C70.944 0.959999 68.064 0 64.512 0H63.072C59.424 0 56.5441 0.959999 54.4321 2.976C52.3201 4.99199 51.2641 7.96799 51.2641 11.904V37.056C51.2641 37.4399 51.2641 37.728 51.2641 38.1119L43.2001 49.7279H49.4401L53.0881 44.3519C53.4721 44.9279 53.8561 45.4079 54.3361 45.8879C56.4481 47.9039 59.328 48.8639 62.976 48.8639H64.416C67.968 48.8639 70.848 47.9039 72.96 45.8879C75.072 43.8719 76.224 40.8959 76.224 36.9599V11.904C76.224 11.52 76.224 11.136 76.224 10.752L83.52 0ZM70.272 38.3999C70.272 39.8399 69.696 41.0879 68.544 42.1439C67.488 43.1999 66.144 43.6799 64.416 43.6799H62.976C61.248 43.6799 59.904 43.1999 58.752 42.1439C57.792 41.0879 57.2161 39.8399 57.2161 38.3999L58.656 36.384L70.272 19.488V38.3999ZM57.2161 29.472V10.56C57.2161 9.11999 57.792 7.87199 58.848 6.81599C60 5.75999 61.344 5.18399 63.072 5.18399H64.512C66.24 5.18399 67.584 5.75999 68.64 6.81599C69.792 7.87199 70.368 9.21599 70.368 10.656L57.2161 29.472Z" fill="#F8F8F8"/>
<path d="M192 48.8639L186.24 49.7279H185.952C184.992 49.7279 184.128 49.4399 183.36 48.8639C182.592 48.1919 181.92 47.3279 181.44 46.2719C180.192 47.4239 178.752 48.2879 177.12 48.8639C175.488 49.4399 173.856 49.7279 172.128 49.7279C169.152 49.7279 166.464 48.9599 164.064 47.4239C161.664 45.8879 159.84 43.7759 158.496 40.9919C157.152 38.208 156.48 35.136 156.48 31.68C156.48 28.32 157.152 25.248 158.4 22.464C159.744 19.68 161.568 17.568 163.968 16.032C166.272 14.496 168.96 13.728 171.84 13.728C174.624 13.728 177.408 14.304 180.288 15.744V5.56799V0H192V5.56799H186.432V39.4559L186.624 42.3359C186.816 43.6799 186.816 43.6799 186.816 43.6799L190.752 42.9119L192 48.8639ZM172.128 43.8719C173.952 43.8719 175.68 43.2959 177.12 42.2399C178.656 41.0879 179.712 39.4559 180.384 37.5359V22.848C177.408 20.736 174.528 19.68 171.84 19.68C169.056 19.68 166.848 20.832 165.12 23.04C163.392 25.248 162.528 28.224 162.528 31.776C162.528 34.08 162.912 36.192 163.68 38.0159C164.544 39.8399 165.696 41.2799 167.136 42.3359C168.672 43.3919 170.304 43.8719 172.128 43.8719Z" fill="#F8F8F8"/>
<path d="M153.216 42.3359C154.08 42.3359 154.848 42.6239 155.424 43.2959C156.096 43.8719 156.384 44.6399 156.384 45.5039C156.384 46.5599 155.904 47.4239 154.944 48.0959C153.6 49.1519 152.16 49.7279 150.528 49.7279C148.896 49.7279 147.648 49.3439 146.496 48.4799C145.44 47.6159 144.192 46.2719 142.752 44.4479L133.824 33.984C133.824 33.984 133.824 33.984 133.728 33.984V33.888H131.712V44.1599C132.672 44.1599 132.672 44.1599 133.536 44.1599H137.28V49.7279H120V44.1599H123.936C124.8 44.1599 125.088 44.1599 125.568 44.1599V5.56799H121.344V0H125.184H131.616V28.32H133.44C133.44 28.32 133.728 27.936 133.824 27.84L140.448 19.488H136.704V13.92H153.408V19.488H150.624C150.432 19.488 148.704 19.488 148.032 19.68C147.552 19.776 147.072 20.448 146.688 20.928L138.816 30.912L147.264 40.7039C148.512 42.3359 149.376 43.1999 149.952 43.3919C150.048 43.3919 150.336 43.1999 150.72 42.9119C151.776 42.6239 152.448 42.3359 153.216 42.3359Z" fill="#F8F8F8"/>
<path d="M3.08743 82.3319V80.5484H8.74779C9.132 80.5484 9.32411 80.3502 9.32411 79.9538V76.9416H8.99478C8.87128 77.2058 8.67918 77.4634 8.41846 77.7145C8.17146 77.9523 7.83527 78.1504 7.40988 78.309C6.9845 78.4675 6.44934 78.5468 5.8044 78.5468C5.03597 78.5468 4.34986 78.3816 3.74609 78.0514C3.14232 77.7211 2.66891 77.2521 2.32586 76.6443C1.98281 76.0366 1.81128 75.3165 1.81128 74.4842V68.5984H3.93134V74.3257C3.93134 75.1712 4.15089 75.7988 4.59 76.2083C5.0291 76.6047 5.63974 76.8029 6.4219 76.8029C7.28639 76.8029 7.97935 76.5254 8.50079 75.9705C9.03595 75.4156 9.30353 74.6097 9.30353 73.5528V68.5984H11.4236V80.37C11.4236 80.9645 11.2383 81.4401 10.8678 81.7969C10.5111 82.1536 10.0171 82.3319 9.38586 82.3319H3.08743Z" fill="#F8F8F8"/>
<path d="M19.5181 78.6459C18.5026 78.6459 17.597 78.4477 16.8011 78.0514C16.0189 77.6418 15.4014 77.0605 14.9486 76.3074C14.4958 75.5544 14.2694 74.6626 14.2694 73.6321V73.3348C14.2694 72.3043 14.4958 71.4191 14.9486 70.6793C15.4014 69.9262 16.0189 69.3449 16.8011 68.9353C17.597 68.5258 18.5026 68.321 19.5181 68.321C20.5335 68.321 21.4391 68.5258 22.235 68.9353C23.0309 69.3449 23.6553 69.9262 24.1081 70.6793C24.5609 71.4191 24.7873 72.3043 24.7873 73.3348V73.6321C24.7873 74.6626 24.5609 75.5544 24.1081 76.3074C23.6553 77.0605 23.0309 77.6418 22.235 78.0514C21.4391 78.4477 20.5335 78.6459 19.5181 78.6459ZM19.5181 76.8227C20.4512 76.8227 21.2059 76.5386 21.7822 75.9705C22.3722 75.3892 22.6673 74.5899 22.6673 73.5726V73.3942C22.6673 72.3769 22.3791 71.5843 21.8028 71.0161C21.2265 70.4348 20.4649 70.1442 19.5181 70.1442C18.5987 70.1442 17.844 70.4348 17.2539 71.0161C16.6776 71.5843 16.3894 72.3769 16.3894 73.3942V73.5726C16.3894 74.5899 16.6776 75.3892 17.2539 75.9705C17.844 76.5386 18.5987 76.8227 19.5181 76.8227Z" fill="#F8F8F8"/>
<path d="M31.5228 78.5468C30.7544 78.5468 30.0683 78.3816 29.4645 78.0514C28.8608 77.7211 28.3873 77.2521 28.0443 76.6443C27.7012 76.0366 27.5297 75.3099 27.5297 74.4644V68.5984H29.6498V74.3257C29.6498 75.1712 29.8693 75.7988 30.3084 76.2083C30.7475 76.6047 31.3582 76.8029 32.1403 76.8029C33.0048 76.8029 33.6978 76.5254 34.2192 75.9705C34.7544 75.4024 35.022 74.5899 35.022 73.533V68.5984H37.142V78.3684H35.0631V76.9019H34.7338C34.5417 77.2983 34.1986 77.6748 33.7046 78.0315C33.2106 78.375 32.4834 78.5468 31.5228 78.5468Z" fill="#F8F8F8"/>
<path d="M45.9339 78.3684V64.4962H48.054V69.9856H48.3833C48.5205 69.7346 48.7126 69.4902 48.9596 69.2524C49.2203 69.0146 49.5565 68.823 49.9682 68.6777C50.3936 68.5191 50.9287 68.4399 51.5737 68.4399C52.3421 68.4399 53.0214 68.605 53.6114 68.9353C54.2152 69.2656 54.6886 69.7346 55.0316 70.3424C55.3747 70.9369 55.5462 71.6569 55.5462 72.5025V78.3684H53.4262V72.661C53.4262 71.8155 53.2066 71.1945 52.7675 70.7982C52.3284 70.3886 51.7246 70.1838 50.9562 70.1838C50.078 70.1838 49.3713 70.4613 48.8361 71.0161C48.3147 71.571 48.054 72.3769 48.054 73.4339V78.3684H45.9339Z" fill="#F8F8F8"/>
<path d="M63.8666 78.6459C62.1925 78.6459 60.8546 78.1901 59.8529 77.2785C58.8649 76.3537 58.3709 74.9664 58.3709 73.1168V69.7478C58.3709 67.9378 58.8649 66.5638 59.8529 65.6258C60.8546 64.6878 62.1925 64.2188 63.8666 64.2188C65.5544 64.2188 66.8923 64.6878 67.8803 65.6258C68.882 66.5638 69.3829 67.9378 69.3829 69.7478V73.1168C69.3829 74.9664 68.882 76.3537 67.8803 77.2785C66.8923 78.1901 65.5544 78.6459 63.8666 78.6459ZM63.8666 76.783C65.0055 76.783 65.8494 76.4726 66.3983 75.8516C66.9472 75.2175 67.2217 74.3323 67.2217 73.1961V69.6289C67.2217 68.4927 66.9266 67.6208 66.3366 67.013C65.7465 66.3921 64.9232 66.0816 63.8666 66.0816C62.7963 66.0816 61.973 66.3987 61.3966 67.0328C60.8203 67.6538 60.5322 68.5191 60.5322 69.6289V73.1961C60.5322 74.3587 60.8066 75.2505 61.3555 75.8714C61.9181 76.4792 62.7551 76.783 63.8666 76.783Z" fill="#F8F8F8"/>
<path d="M77.3389 78.6459C75.6648 78.6459 74.3269 78.1901 73.3252 77.2785C72.3372 76.3537 71.8432 74.9664 71.8432 73.1168V69.7478C71.8432 67.9378 72.3372 66.5638 73.3252 65.6258C74.3269 64.6878 75.6648 64.2188 77.3389 64.2188C79.0267 64.2188 80.3646 64.6878 81.3526 65.6258C82.3543 66.5638 82.8552 67.9378 82.8552 69.7478V73.1168C82.8552 74.9664 82.3543 76.3537 81.3526 77.2785C80.3646 78.1901 79.0267 78.6459 77.3389 78.6459ZM77.3389 76.783C78.4778 76.783 79.3217 76.4726 79.8706 75.8516C80.4195 75.2175 80.6939 74.3323 80.6939 73.1961V69.6289C80.6939 68.4927 80.3989 67.6208 79.8089 67.013C79.2188 66.3921 78.3955 66.0816 77.3389 66.0816C76.2686 66.0816 75.4453 66.3987 74.8689 67.0328C74.2926 67.6538 74.0044 68.5191 74.0044 69.6289V73.1961C74.0044 74.3587 74.2789 75.2505 74.8278 75.8714C75.3904 76.4792 76.2274 76.783 77.3389 76.783Z" fill="#F8F8F8"/>
<path d="M85.7477 78.3684V64.4962H87.8678V72.4034H88.1971L92.1903 68.5984H95.0101L89.8849 73.3348L95.1748 78.3684H92.3755L88.1971 74.3059H87.8678V78.3684H85.7477Z" fill="#F8F8F8"/>
<path d="M100.906 78.6459C100.069 78.6459 99.2941 78.4477 98.5805 78.0514C97.867 77.655 97.2906 77.0869 96.8515 76.3471C96.4261 75.594 96.2134 74.689 96.2134 73.6321V73.3348C96.2134 72.2911 96.4261 71.3927 96.8515 70.6396C97.2769 69.8866 97.8464 69.3118 98.5599 68.9155C99.2735 68.5191 100.056 68.321 100.906 68.321C101.565 68.321 102.114 68.4002 102.553 68.5588C103.006 68.7173 103.376 68.9221 103.665 69.1731C103.953 69.4109 104.172 69.662 104.323 69.9262H104.653V64.4962H106.773V78.3684H104.694V76.9812H104.364C104.104 77.404 103.706 77.7871 103.171 78.1306C102.649 78.4741 101.894 78.6459 100.906 78.6459ZM101.503 76.8623C102.423 76.8623 103.177 76.5783 103.767 76.0102C104.371 75.4421 104.673 74.6295 104.673 73.5726V73.3942C104.673 72.3505 104.378 71.5446 103.788 70.9765C103.198 70.4084 102.436 70.1244 101.503 70.1244C100.598 70.1244 99.8429 70.4084 99.2392 70.9765C98.6491 71.5446 98.3541 72.3505 98.3541 73.3942V73.5726C98.3541 74.6295 98.6491 75.4421 99.2392 76.0102C99.8429 76.5783 100.598 76.8623 101.503 76.8623Z" fill="#F8F8F8"/>
<path d="M113.125 74.2266V73.3942C113.125 72.7601 113.249 72.2448 113.496 71.8485C113.756 71.4521 114.195 71.1152 114.813 70.8378L115.266 70.6396C115.924 70.3622 116.439 70.0451 116.809 69.6884C117.18 69.3317 117.365 68.8362 117.365 68.2021C117.365 67.7397 117.242 67.3499 116.995 67.0328C116.748 66.7158 116.411 66.4713 115.986 66.2996C115.561 66.1278 115.074 66.042 114.525 66.042C113.976 66.042 113.468 66.1344 113.002 66.3194C112.549 66.4912 112.185 66.762 111.911 67.1319C111.636 67.5018 111.499 67.9643 111.499 68.5191V69.074H109.317V68.5191C109.317 67.6208 109.544 66.8479 109.996 66.2005C110.463 65.5531 111.087 65.0643 111.869 64.734C112.652 64.3905 113.537 64.2188 114.525 64.2188C115.499 64.2188 116.363 64.3905 117.118 64.734C117.873 65.0775 118.463 65.5465 118.888 66.141C119.327 66.7356 119.547 67.4226 119.547 68.2021C119.547 68.9683 119.396 69.6091 119.094 70.1244C118.806 70.6264 118.429 71.036 117.962 71.353C117.496 71.6701 117.002 71.941 116.48 72.1656L116.027 72.3637C115.78 72.4694 115.602 72.6015 115.492 72.7601C115.396 72.9186 115.348 73.1564 115.348 73.4735V74.2266H113.125ZM114.278 78.6459C113.811 78.6459 113.413 78.4939 113.084 78.1901C112.768 77.8862 112.61 77.4965 112.61 77.0208C112.61 76.5452 112.768 76.1621 113.084 75.8714C113.413 75.5676 113.811 75.4156 114.278 75.4156C114.772 75.4156 115.176 75.5676 115.492 75.8714C115.808 76.1621 115.966 76.5452 115.966 77.0208C115.966 77.4965 115.808 77.8862 115.492 78.1901C115.176 78.4939 114.772 78.6459 114.278 78.6459Z" fill="#F8F8F8"/>
</svg>
