<svg width="1920" height="320" viewBox="0 0 1920 320" fill="none" xmlns="http://www.w3.org/2000/svg">
<path d="M467.954 284.17C471.042 284.17 471.042 284.17 477.22 284.17H504.402V320H390.116V284.17H415.444C421.004 284.17 421.622 284.17 425.946 284.17L427.181 160C427.181 150.734 424.71 142.703 419.151 137.143C413.591 130.965 403.089 128.494 387.027 128.494C375.907 128.494 364.788 132.201 353.668 140.849C343.166 149.498 333.9 160.618 326.486 174.208C319.691 187.799 314.749 202.008 314.749 215.598V283.552C320.927 283.552 321.544 283.552 327.722 283.552H354.286V319.382H240V283.552H267.181C272.741 283.552 273.359 283.552 278.919 283.552V35.8301H248.031V0H273.977H314.749V122.934C324.633 112.432 336.988 105.019 348.726 99.4595C361.081 93.2818 374.054 90.1931 386.409 90.1931C411.12 90.1931 430.27 96.3707 444.479 108.726C458.687 121.081 467.336 137.143 467.336 158.764V284.17H467.954Z" fill="#141414"/>
<path d="M1005.41 0H967.722L946.718 30.2703C944.247 25.9459 941.158 22.8571 938.07 19.1506C924.479 6.17761 905.946 0 883.089 0H873.822C850.348 0 831.815 6.17761 818.224 19.1506C804.633 32.1236 797.838 51.2741 797.838 76.6023V238.456C797.838 240.927 797.838 242.78 797.838 245.251L745.946 320H786.1L809.575 285.405C812.046 289.112 814.517 292.201 817.606 295.29C831.197 308.263 849.73 314.44 873.205 314.44H882.471C905.328 314.44 923.861 308.263 937.452 295.29C951.043 282.317 958.456 263.166 958.456 237.838V76.6023C958.456 74.1313 958.456 71.6602 958.456 69.1892L1005.41 0ZM920.154 247.104C920.154 256.371 916.448 264.402 909.035 271.197C902.239 277.992 893.591 281.081 882.471 281.081H873.205C862.085 281.081 853.436 277.992 846.023 271.197C839.846 264.402 836.139 256.371 836.139 247.104L845.405 234.131L920.154 125.405V247.104ZM836.139 189.653V67.9537C836.139 58.6873 839.846 50.6564 846.641 43.861C854.054 37.0656 862.703 33.3591 873.822 33.3591H883.089C894.209 33.3591 902.857 37.0656 909.653 43.861C917.066 50.6564 920.772 59.305 920.772 68.5714L836.139 189.653Z" fill="#141414"/>
<path d="M909.035 271.197C916.448 264.401 920.155 256.37 920.155 247.104V125.405L845.406 234.131L836.139 247.104C836.139 256.37 839.846 264.401 846.023 271.197C853.436 277.992 862.085 281.081 873.205 281.081H882.471C893.591 281.081 902.24 277.992 909.035 271.197Z" fill="#F2DB60"/>
<path d="M777.452 0H739.768L718.765 30.2703C716.293 25.9459 713.205 22.8571 710.116 19.1506C696.525 6.17761 677.992 0 655.135 0H645.869C622.394 0 603.861 6.17761 590.27 19.1506C576.68 32.1236 569.884 51.2741 569.884 76.6023V238.456C569.884 240.927 569.884 242.78 569.884 245.251L517.992 320H558.147L581.622 285.405C584.093 289.112 586.564 292.201 589.653 295.29C603.243 308.263 621.776 314.44 645.251 314.44H654.517C677.375 314.44 695.907 308.263 709.498 295.29C723.089 282.317 730.502 263.166 730.502 237.838V76.6023C730.502 74.1313 730.502 71.6602 730.502 69.1892L777.452 0ZM692.201 247.104C692.201 256.371 688.494 264.402 681.081 271.197C674.286 277.992 665.637 281.081 654.517 281.081H645.251C634.131 281.081 625.483 277.992 618.07 271.197C611.892 264.402 608.185 256.371 608.185 247.104L617.452 234.131L692.201 125.405V247.104ZM608.185 189.653V67.9537C608.185 58.6873 611.892 50.6564 618.687 43.861C626.1 37.0656 634.749 33.3591 645.869 33.3591H655.135C666.255 33.3591 674.904 37.0656 681.699 43.861C689.112 50.6564 692.819 59.305 692.819 68.5714L608.185 189.653Z" fill="#141414"/>
<path d="M681.081 271.197C688.494 264.401 692.201 256.37 692.201 247.104V125.405L617.452 234.131L608.185 247.104C608.185 256.37 611.892 264.401 618.07 271.197C625.483 277.992 634.131 281.081 645.251 281.081H654.518C665.637 281.081 674.286 277.992 681.081 271.197Z" fill="#81ECA5"/>
<path d="M1475.52 314.44L1438.46 320H1436.6C1430.42 320 1424.87 318.147 1419.92 314.44C1414.98 310.116 1410.66 304.556 1407.57 297.761C1399.54 305.174 1390.27 310.734 1379.77 314.44C1369.27 318.147 1358.76 320 1347.65 320C1328.49 320 1311.2 315.058 1295.75 305.174C1280.31 295.29 1268.57 281.699 1259.92 263.784C1251.27 245.869 1246.95 226.1 1246.95 203.861C1246.95 182.239 1251.27 162.471 1259.31 144.556C1267.95 126.641 1279.69 113.05 1295.14 103.166C1309.96 93.2819 1327.26 88.3398 1345.79 88.3398C1363.71 88.3398 1381.62 92.0463 1400.15 101.313V35.8301V0H1475.52V35.8301H1439.69V253.9L1440.93 272.432C1442.16 281.081 1442.16 281.081 1442.16 281.081L1467.49 276.139L1475.52 314.44ZM1347.65 282.317C1359.38 282.317 1370.5 278.61 1379.77 271.815C1389.65 264.402 1396.45 253.9 1400.77 241.544V147.027C1381.62 133.436 1363.09 126.641 1345.79 126.641C1327.88 126.641 1313.67 134.054 1302.55 148.263C1291.43 162.471 1285.87 181.622 1285.87 204.479C1285.87 219.305 1288.34 232.896 1293.28 244.633C1298.84 256.371 1306.26 265.637 1315.52 272.432C1325.41 279.228 1335.91 282.317 1347.65 282.317Z" fill="#141414"/>
<path d="M1225.95 272.432C1231.51 272.432 1236.45 274.286 1240.15 278.61C1244.48 282.317 1246.33 287.259 1246.33 292.819C1246.33 299.614 1243.24 305.174 1237.07 309.498C1228.42 316.293 1219.15 320 1208.65 320C1198.15 320 1190.12 317.529 1182.7 311.969C1175.91 306.409 1167.88 297.761 1158.61 286.023L1101.16 218.687C1101.16 218.687 1101.16 218.687 1100.54 218.687V218.069H1087.57V284.17C1093.75 284.17 1093.75 284.17 1099.31 284.17H1123.4V320H1012.2V284.17H1037.53C1043.09 284.17 1044.94 284.17 1048.03 284.17V35.8301H1020.85V0H1045.56H1086.95V182.239H1098.69C1098.69 182.239 1100.54 179.768 1101.16 179.151L1143.78 125.405H1119.69V89.5753H1227.18V125.405H1209.27C1208.03 125.405 1196.91 125.405 1192.59 126.641C1189.5 127.259 1186.41 131.583 1183.94 134.672L1133.28 198.919L1187.64 261.931C1195.68 272.432 1201.24 277.992 1204.94 279.228C1205.56 279.228 1207.41 277.992 1209.88 276.139C1216.68 274.286 1221 272.432 1225.95 272.432Z" fill="#141414"/>
<path d="M836.139 67.9532V189.652L920.772 68.571C920.772 59.3046 917.065 50.6559 909.652 43.8605C902.857 37.0652 894.208 33.3586 883.089 33.3586H873.822C862.702 33.3586 854.054 37.0652 846.641 43.8605C839.845 50.6559 836.139 58.6868 836.139 67.9532Z" fill="#70DFEE"/>
<path d="M608.186 67.9532V189.652L692.819 68.571C692.819 59.3046 689.112 50.6559 681.699 43.8605C674.904 37.0652 666.255 33.3586 655.136 33.3586H645.869C634.75 33.3586 626.101 37.0652 618.688 43.8605C611.892 50.6559 608.186 58.6868 608.186 67.9532Z" fill="#F284F5"/>
</svg>
