<svg width="142" height="37" viewBox="0 0 142 37" fill="none" xmlns="http://www.w3.org/2000/svg">
<g clip-path="url(#clip0_27_374)">
<path fill-rule="evenodd" clip-rule="evenodd" d="M71.0841 7.70545V29.2944C71.0841 29.4609 70.9496 29.5941 70.7702 29.6052H68.5057C67.452 29.6052 66.4655 29.0724 65.8937 28.1955L55.6028 12.445L55.9503 20.3147V29.2944C55.9503 29.4609 55.8157 29.5941 55.6476 29.6052H52.6433C52.4751 29.5941 52.3406 29.4609 52.3406 29.2944V7.70545C52.3406 7.53896 52.4751 7.40576 52.6433 7.40576H54.8965C55.9615 7.40576 56.9368 7.92745 57.5197 8.80432L67.7995 24.5326L67.4856 16.6962V7.70545C67.4856 7.53896 67.6201 7.40576 67.7995 7.40576H70.7926C70.9608 7.41686 71.0841 7.55006 71.0841 7.70545Z" fill="#F8F8F8"/>
<path fill-rule="evenodd" clip-rule="evenodd" d="M101.722 29.6052H98.5491C98.381 29.5941 98.2465 29.4609 98.2465 29.2944C98.2465 29.2611 98.2465 29.2278 98.2577 29.1945L106.665 7.69435C106.733 7.51676 106.912 7.40576 107.103 7.40576C107.114 7.40576 107.114 7.40576 107.125 7.40576H111.093C111.284 7.40576 111.463 7.51676 111.531 7.69435L119.905 29.1945C119.916 29.2278 119.927 29.2611 119.927 29.2944C119.927 29.4609 119.793 29.5941 119.613 29.6052H116.441C116.317 29.6052 116.194 29.5275 116.149 29.4054L109.378 11.7235C109.333 11.6015 109.221 11.5238 109.087 11.5238C108.952 11.5238 108.84 11.6015 108.795 11.7235L102.024 29.4054C101.968 29.5275 101.856 29.6052 101.733 29.6052C101.722 29.6052 101.722 29.6052 101.722 29.6052Z" fill="#F8F8F8"/>
<path fill-rule="evenodd" clip-rule="evenodd" d="M141.933 29.1057L135.621 21.1361C139.186 20.4701 141.26 18.0948 141.26 14.443C141.26 10.2584 138.514 7.40576 133.637 7.40576H124.848C124.591 7.40576 124.389 7.60556 124.389 7.86085C124.389 9.49251 125.723 10.8245 127.382 10.8245H133.278C136.216 10.8245 137.628 12.3118 137.628 14.4652C137.628 16.6185 136.249 18.1725 133.278 18.1725H124.848C124.591 18.1725 124.389 18.3834 124.389 18.6387V29.3166C124.389 29.4942 124.523 29.6274 124.703 29.6274H127.696C127.864 29.6274 128.01 29.4942 128.01 29.3166V21.3248H131.462L136.933 28.3953C137.527 29.1501 138.435 29.6052 139.41 29.6052H139.422H141.697C141.865 29.5941 142 29.4609 142 29.2944C142 29.2278 141.978 29.1612 141.933 29.1057Z" fill="#F8F8F8"/>
<path fill-rule="evenodd" clip-rule="evenodd" d="M92.2378 7.40576H78.3371C78.1017 7.40576 77.9223 7.58336 77.9223 7.81645C77.9223 9.48141 79.2787 10.8245 80.9603 10.8245H92.2378C92.249 10.8245 92.249 10.8245 92.249 10.8245C92.4171 10.8245 92.5516 10.6913 92.5516 10.5248C92.5516 10.5248 92.5516 10.5248 92.5516 10.5137V7.70545C92.5516 7.53896 92.4171 7.40576 92.2378 7.40576ZM92.5516 26.4862H82.171C82.0028 26.4862 81.8683 26.3419 81.8683 26.1754V20.3036C81.8683 20.1371 82.0028 19.9928 82.171 19.9928H91.7669C91.9463 19.9928 92.0808 19.8596 92.0808 19.682V16.8627C92.0808 16.6851 91.9463 16.5519 91.7669 16.5519H78.3819C78.1241 16.5519 77.9223 16.7628 77.9223 17.0181V29.1168V29.1279C77.9223 29.3832 78.1241 29.583 78.3819 29.583H92.2378C92.4171 29.583 92.5516 29.4498 92.5516 29.2722V26.464C92.5516 26.3086 92.4171 26.1754 92.249 26.1754C92.249 26.1754 92.249 26.1754 92.2378 26.1754L92.5516 26.4862Z" fill="#F8F8F8"/>
<path fill-rule="evenodd" clip-rule="evenodd" d="M29.9986 1.87829L22.1738 13.3665C22.0729 13.5108 22.0169 13.6773 22.0169 13.8549C22.0169 14.31 22.3868 14.6763 22.8465 14.6763C23.0594 14.6763 23.2724 14.5986 23.4294 14.4432L31.1196 7.87213C31.1757 7.81664 31.2429 7.78334 31.3214 7.78334C31.4895 7.78334 31.6241 7.92763 31.6241 8.09413V28.7729C31.6241 28.9394 31.4895 29.0726 31.3214 29.0726C31.2317 29.0726 31.142 29.0393 31.086 28.9727L7.83595 1.4232C7.08487 0.535227 5.96384 0.0135411 4.78677 0.00244141H3.97963C1.78243 0.00244141 0 1.7673 0 3.94284V33.0574C0 35.2329 1.78243 36.9978 3.97963 36.9978C5.3697 36.9978 6.64767 36.2874 7.37633 35.1219L15.1899 23.6448C15.302 23.5005 15.358 23.3229 15.358 23.1453C15.358 22.6902 14.9881 22.324 14.5285 22.324C14.3043 22.324 14.1025 22.4128 13.9455 22.5571L6.25531 29.1392C6.19926 29.1836 6.12079 29.2169 6.04231 29.2169C5.87416 29.2169 5.73964 29.0837 5.73964 28.9172C5.73964 28.9061 5.73964 28.9061 5.73964 28.9061V8.24952C5.73964 8.08303 5.87416 7.94983 6.05352 7.94983C6.14321 7.94983 6.22168 7.98313 6.28894 8.06083L29.539 35.5992C30.29 36.4872 31.4111 36.9978 32.5769 36.9978H33.4065C35.6149 36.9978 37.3973 35.2329 37.3973 33.0574V3.94284C37.3973 1.7673 35.6149 0.00244141 33.4065 0.00244141C33.4065 0.00244141 33.3953 0.00244141 33.3841 0.00244141C32.0052 0.00244141 30.716 0.712823 29.9986 1.87829Z" fill="#F8F8F8"/>
</g>
<defs>
<clipPath id="clip0_27_374">
<rect width="142" height="37" fill="white"/>
</clipPath>
</defs>
</svg>
