<svg width="50" height="40" viewBox="0 0 50 40" fill="none" xmlns="http://www.w3.org/2000/svg">
<mask id="path-1-inside-1_2_445" fill="white">
<path d="M15.4813 40C34.058 40 44.2186 24.6093 44.2186 11.2627C44.2186 10.8254 44.2186 10.3903 44.1891 9.9551C46.1656 8.52598 47.8719 6.75641 49.2281 4.72923C47.3848 5.54605 45.4293 6.08172 43.4271 6.31837C45.5354 5.05617 47.1134 3.07094 47.8674 0.732138C45.8848 1.90855 43.7157 2.73761 41.4539 3.18354C39.9311 1.56435 37.9171 0.492169 35.7235 0.132922C33.53 -0.226324 31.2791 0.147389 29.3194 1.19623C27.3596 2.24507 25.8001 3.91057 24.8823 5.935C23.9644 7.95943 23.7394 10.2299 24.242 12.3952C20.2264 12.1938 16.2981 11.1503 12.712 9.33229C9.12592 7.51428 5.96225 4.96246 3.42635 1.84246C2.13479 4.06589 1.73918 6.69799 2.32009 9.20285C2.901 11.7077 4.41473 13.897 6.55311 15.325C4.94584 15.2773 3.37362 14.8438 1.96912 14.0608V14.1887C1.96974 16.5206 2.77695 18.7805 4.25386 20.5851C5.73076 22.3897 7.78641 23.6278 10.0721 24.0895C8.58519 24.495 7.02506 24.5543 5.51162 24.2628C6.15701 26.2697 7.41351 28.0246 9.10539 29.2823C10.7973 30.5399 12.8399 31.2372 14.9476 31.2768C11.3712 34.0876 6.9531 35.6135 2.40429 35.6089C1.6007 35.6073 0.797893 35.5587 0 35.4631C4.61885 38.4272 9.99315 39.9994 15.4813 39.9921"/>
</mask>
<path d="M15.4813 40C34.058 40 44.2186 24.6093 44.2186 11.2627C44.2186 10.8254 44.2186 10.3903 44.1891 9.9551C46.1656 8.52598 47.8719 6.75641 49.2281 4.72923C47.3848 5.54605 45.4293 6.08172 43.4271 6.31837C45.5354 5.05617 47.1134 3.07094 47.8674 0.732138C45.8848 1.90855 43.7157 2.73761 41.4539 3.18354C39.9311 1.56435 37.9171 0.492169 35.7235 0.132922C33.53 -0.226324 31.2791 0.147389 29.3194 1.19623C27.3596 2.24507 25.8001 3.91057 24.8823 5.935C23.9644 7.95943 23.7394 10.2299 24.242 12.3952C20.2264 12.1938 16.2981 11.1503 12.712 9.33229C9.12592 7.51428 5.96225 4.96246 3.42635 1.84246C2.13479 4.06589 1.73918 6.69799 2.32009 9.20285C2.901 11.7077 4.41473 13.897 6.55311 15.325C4.94584 15.2773 3.37362 14.8438 1.96912 14.0608V14.1887C1.96974 16.5206 2.77695 18.7805 4.25386 20.5851C5.73076 22.3897 7.78641 23.6278 10.0721 24.0895C8.58519 24.495 7.02506 24.5543 5.51162 24.2628C6.15701 26.2697 7.41351 28.0246 9.10539 29.2823C10.7973 30.5399 12.8399 31.2372 14.9476 31.2768C11.3712 34.0876 6.9531 35.6135 2.40429 35.6089C1.6007 35.6073 0.797893 35.5587 0 35.4631C4.61885 38.4272 9.99315 39.9994 15.4813 39.9921" fill="#70DFEE"/>
<path d="M44.1891 9.9551L43.2751 8.69095L42.5744 9.19761L42.6327 10.0603L44.1891 9.9551ZM49.2281 4.72923L50.5247 5.59667L53.5184 1.12179L48.5961 3.30298L49.2281 4.72923ZM43.4271 6.31837L42.6258 4.97989L43.6102 7.86759L43.4271 6.31837ZM47.8674 0.732138L49.3521 1.21078L50.6172 -2.71344L47.0713 -0.609463L47.8674 0.732138ZM41.4539 3.18354L40.3175 4.25229L40.9088 4.88103L41.7556 4.71408L41.4539 3.18354ZM24.242 12.3952L24.1638 13.9532L26.2291 14.0567L25.7616 12.0424L24.242 12.3952ZM3.42635 1.84246L4.63692 0.858528L3.2121 -0.894468L2.07742 1.05889L3.42635 1.84246ZM6.55311 15.325L6.50687 16.8843L11.9383 17.0454L7.41945 14.0277L6.55311 15.325ZM1.96912 14.0608L2.72869 12.6982L0.409124 11.4052V14.0608H1.96912ZM1.96912 14.1887H0.409124L0.409124 14.1891L1.96912 14.1887ZM10.0721 24.0895L10.4826 25.5946L10.381 22.5604L10.0721 24.0895ZM5.51162 24.2628L5.8067 22.7309L3.22009 22.2327L4.02653 24.7404L5.51162 24.2628ZM14.9476 31.2768L15.9116 32.5034L19.3523 29.7993L14.9769 29.7171L14.9476 31.2768ZM2.40429 35.6089L2.40127 37.1689H2.40272L2.40429 35.6089ZM0 35.4631L0.185455 33.9142L-0.842539 36.776L0 35.4631ZM15.4813 41.56C35.0986 41.56 45.7786 25.2801 45.7786 11.2627H42.6586C42.6586 23.9385 33.0173 38.44 15.4813 38.44V41.56ZM45.7786 11.2627C45.7786 10.8342 45.7791 10.3463 45.7456 9.84987L42.6327 10.0603C42.658 10.4342 42.6586 10.8167 42.6586 11.2627H45.7786ZM45.1032 11.2192C47.2297 9.68164 49.0655 7.77774 50.5247 5.59667L47.9315 3.86179C46.6782 5.73508 45.1015 7.37031 43.2751 8.69095L45.1032 11.2192ZM48.5961 3.30298C46.8954 4.05659 45.0913 4.55082 43.2439 4.76916L43.6102 7.86759C45.7674 7.61263 47.8741 7.0355 49.8601 6.15548L48.5961 3.30298ZM44.2284 7.65685C46.6613 6.20037 48.4821 3.90957 49.3521 1.21078L46.3826 0.253501C45.7447 2.23231 44.4096 3.91197 42.6258 4.97989L44.2284 7.65685ZM47.0713 -0.609463C45.2415 0.476284 43.2397 1.24145 41.1521 1.65301L41.7556 4.71408C44.1918 4.23378 46.528 3.34083 48.6634 2.07374L47.0713 -0.609463ZM42.5903 2.1148C40.8325 0.245741 38.5077 -0.991886 35.9756 -1.40657L35.4714 1.67241C37.3265 1.97622 39.0297 2.88295 40.3175 4.25229L42.5903 2.1148ZM35.9756 -1.40657C33.4436 -1.82125 30.8455 -1.38987 28.5833 -0.179179L30.0555 2.57164C31.7128 1.68465 33.6163 1.3686 35.4714 1.67241L35.9756 -1.40657ZM28.5833 -0.179179C26.3211 1.03151 24.521 2.95402 23.4615 5.29084L26.3031 6.57917C27.0793 4.86713 28.3981 3.45864 30.0555 2.57164L28.5833 -0.179179ZM23.4615 5.29084C22.402 7.62766 22.1422 10.2485 22.7223 12.7479L25.7616 12.0424C25.3365 10.2113 25.5269 8.29121 26.3031 6.57917L23.4615 5.29084ZM24.3201 10.8371C20.523 10.6467 16.8084 9.65997 13.4174 7.94088L12.0066 10.7237C15.7878 12.6406 19.9298 13.7409 24.1638 13.9532L24.3201 10.8371ZM13.4174 7.94088C10.0264 6.22178 7.03485 3.80878 4.63692 0.858528L2.21579 2.8264C4.88964 6.11613 8.22544 8.80679 12.0066 10.7237L13.4174 7.94088ZM2.07742 1.05889C0.586518 3.62548 0.129859 6.66382 0.800422 9.55528L3.83976 8.85042C3.34851 6.73216 3.68306 4.5063 4.77528 2.62604L2.07742 1.05889ZM0.800422 9.55528C1.47098 12.4467 3.21835 14.9739 5.68676 16.6223L7.41945 14.0277C5.61112 12.8201 4.33101 10.9687 3.83976 8.85042L0.800422 9.55528ZM6.59934 13.7657C5.24219 13.7254 3.91462 13.3593 2.72869 12.6982L1.20956 15.4234C2.83261 16.3282 4.64949 16.8292 6.50687 16.8843L6.59934 13.7657ZM0.409124 14.0608V14.1887H3.52912V14.0608H0.409124ZM0.409124 14.1891C0.409832 16.8811 1.34169 19.4899 3.04662 21.5731L5.46109 19.5971C4.21222 18.0711 3.52964 16.1602 3.52912 14.1883L0.409124 14.1891ZM3.04662 21.5731C4.75156 23.6563 7.12462 25.0856 9.76327 25.6186L10.381 22.5604C8.44821 22.17 6.70995 21.123 5.46109 19.5971L3.04662 21.5731ZM9.6617 22.5845C8.40477 22.9273 7.086 22.9774 5.8067 22.7309L5.21655 25.7946C6.96412 26.1313 8.7656 26.0628 10.4826 25.5946L9.6617 22.5845ZM4.02653 24.7404C4.77148 27.0569 6.22184 29.0826 8.17475 30.5343L10.036 28.0303C8.60518 26.9667 7.54253 25.4824 6.99672 23.7852L4.02653 24.7404ZM8.17475 30.5343C10.1277 31.9859 12.4855 32.7909 14.9184 32.8365L14.9769 29.7171C13.1944 29.6836 11.4669 29.0938 10.036 28.0303L8.17475 30.5343ZM13.9837 30.0503C10.6825 32.6447 6.60453 34.0531 2.40587 34.0489L2.40272 37.1689C7.30167 37.1738 12.0598 35.5305 15.9116 32.5034L13.9837 30.0503ZM2.40732 34.0489C1.6647 34.0475 0.922805 34.0025 0.185455 33.9142L-0.185455 37.0121C0.672982 37.1149 1.5367 37.1672 2.40127 37.1689L2.40732 34.0489ZM-0.842539 36.776C4.02831 39.9018 9.69581 41.5598 15.4834 41.5521L15.4792 38.4321C10.2905 38.439 5.2094 36.9526 0.842539 34.1502L-0.842539 36.776Z" fill="black" mask="url(#path-1-inside-1_2_445)"/>
</svg>
